# xmcd CD database file
#
# Track frame offsets:
#	150
#	17875
#	41185
#	56814
#	71412
#	85534
#	102260
#	126081
#	144615
#	166769
#	178023
#	194970
#	209643
#	224764
#
# Disc length: 3248 seconds
#
# Revision: 0
# Processed by: cddbd v1.5.2PL0 Copyright (c) Steve Scherf et al.
# Submitted via: CDex 1.70beta2
#
DISCID=dd0cae0e
DTITLE=Leifen and friends - Stories - (Vol.4)
DYEAR=2006
DGENRE=Country
TTITLE0=Jeg er så glad jeg er fra Telemark
TTITLE1=Aasdalsåa
TTITLE2=Couple more years
TTITLE3=Mins du 60 åra
TTITLE4=Good morning tears
TTITLE5=Call me the Brezze
TTITLE6=En stille kveld ved elva
TTITLE7=Picture in a fame
TTITLE8=Barbeint i sanda
TTITLE9=Do you want to shake hand  (that shook the hand of the president)
TTITLE10=A teardrop on the Rose
TTITLE11=Et tilbakeblikk
TTITLE12=Storms never last (Instrumental)
TTITLE13=When my heart hurts no more
EXTD=YEAR: 2006
EXTT0=
EXTT1=
EXTT2=
EXTT3=
EXTT4=
EXTT5=
EXTT6=
EXTT7=
EXTT8=
EXTT9=
EXTT10=
EXTT11=
EXTT12=
EXTT13=
PLAYORDER=
